<svg xmlns="http://www.w3.org/2000/svg" viewBox="0 0 560 560"><defs><style>.cls-1{fill:none;stroke:#000;stroke-miterlimit:10;}</style></defs><title>Cat 3</title><g id="cat_head_1"><polygon class="cls-1" points="109.89 145.77 109.89 368.88 456.65 368.88 456.65 145.77 357.27 145.77 237.57 145.77 109.89 145.77"/></g><g id="ear_left_3"><polyline class="cls-1" points="109.89 145.77 109.89 106.17 152.18 61.98 190.12 103.87 190.12 145.77"/></g><g id="ear_right_3"><polyline class="cls-1" points="456.65 145.77 456.65 103.87 417.79 61.98 378.97 103.87 379.58 145.77"/></g><g id="eye_left_3"><path class="cls-1" d="M143.05,210.71a30.58,30.58,0,0,0,30.74,30.47"/><path class="cls-1" d="M206.45,210.71c0,16.84-14.61,30.47-32.66,30.47"/></g><g id="eye_left_4"><polygon class="cls-1" points="173.79 204.15 152.18 204.15 152.18 262.75 220.86 262.75 220.86 204.15 173.79 204.15"/><path class="cls-1" d="M173.79,229.13v0Z"/><path class="cls-1" d="M206.45,229.13h0Z"/><line class="cls-1" x1="206.45" y1="204.15" x2="206.45" y2="229.13"/></g><g id="eye_right_3"><path class="cls-1" d="M425.65,210.71a30.46,30.46,0,0,1-30.48,30.47"/><path class="cls-1" d="M364,210.71c0,16.84,13.94,30.47,31.17,30.47"/></g><g id="eye_right_4"><polygon class="cls-1" points="359.19 204.15 359.19 262.75 425.65 262.75 425.65 204.15 378.97 204.15 359.19 204.15"/><rect class="cls-1" x="378.97" y="204.15" width="32.1" height="24.98"/></g><g id="glasses_1"><polyline class="cls-1" points="109.89 198.39 129.6 210.71 129.6 257.32 224.7 257.32 224.7 214.72 337.1 215.68 337.1 257.32 438.93 257.32 438.93 210.71 456.65 198.39 456.65 188.78 438.93 202.23 438.93 183.02 339.02 183.02 339.02 204.15 223.74 203.19 225.66 183.02 129.6 183.02 129.6 201.27 109.89 187.82"/></g><g id="glasses_2"><circle class="cls-1" cx="187.3" cy="228.04" r="54.52"/><circle class="cls-1" cx="382.3" cy="228.04" r="54.52"/><line class="cls-1" x1="109.88" y1="210.71" x2="133.49" y2="236.81"/><line class="cls-1" x1="241.82" y1="228.04" x2="327.79" y2="228.04"/><line class="cls-1" x1="436.12" y1="236.81" x2="456.65" y2="215.68"/></g><g id="eyebrow_left_sadness"><path class="cls-1" d="M150.73,164.77c3.89,9.43,13.53,14.5,22.1,12.49,6.35-1.5,11.45-6.73,13.44-13.45"/></g><g id="eyebrow_left_anger"><line class="cls-1" x1="152.18" y1="153.83" x2="237.19" y2="194.55"/></g><g id="eyebrow_left_blank" data-name="eyebrow_left blank"><line class="cls-1" x1="143.05" y1="171.49" x2="190.12" y2="171.49"/></g><g id="eyebrow_right_sadness"><path class="cls-1" d="M382.25,160a16.64,16.64,0,0,0,15.37,11.53c7.89.07,15-6,16.33-14.41"/></g><g id="eyebrow_right_blank"><line class="cls-1" x1="382.51" y1="165.73" x2="425.65" y2="165.73"/></g><g id="eyebrow_right_anger"><line class="cls-1" x1="425.65" y1="153.83" x2="332.29" y2="194.55"/></g><g id="mouth_sadness"><path class="cls-1" d="M260.25,339.61c3.06-17.53,18.41-30.15,35.54-29.78,15.9.34,29.94,11.81,33.62,27.85"/></g><g id="mouth_blank"><line class="cls-1" x1="258.32" y1="334.8" x2="317.88" y2="334.8"/></g><g id="mouth_happy"><path class="cls-1" d="M270.81,322.31c0,9,6.26,16.34,14,16.34"/><path class="cls-1" d="M304.44,322.31c0,9-8.79,16.34-19.64,16.34"/></g><g id="mouth_surprise"><path class="cls-1" d="M260.25,314.63c0-12.74,13.74-23.06,30.74-23.06"/><path class="cls-1" d="M316.92,314.63c0-12.74-11.6-23.06-25.93-23.06"/><path class="cls-1" d="M260.25,314.63c0,13.27,3.43,24,7.68,24"/><path class="cls-1" d="M309.24,338.65H267.93"/><path class="cls-1" d="M316.92,314.63c0,13.27-3.43,24-7.68,24"/></g><g id="mouth_anger"><polyline class="cls-1" points="226.62 330 256.4 305.98 323.65 305.98 355.83 333.84"/></g><g id="body_4"><path class="cls-1" d="M129.6,368.88C129.6,452,201.78,519.25,291,519.25"/><path class="cls-1" d="M438.93,368.88c0,83.11-66.17,150.37-147.94,150.37"/><path class="cls-1" d="M165.72,463.73c0-14.45,19.93-26.14,44.57-26.14"/><path class="cls-1" d="M210.29,437.59v61.57"/><path class="cls-1" d="M359.19,437.59v64.78"/><path class="cls-1" d="M405.82,463.73c0-14.45-20.86-26.14-46.63-26.14"/></g><g id="body_3"><path class="cls-1" d="M244.87,368.88c-39.29,0-71.08,62.53-71.08,139.8H395.17V500c0-72.5-29.84-131.16-66.72-131.16"/></g></svg>