<?xml version='1.0' encoding='ASCII' standalone='yes'?>
<svg xmlns:xlink="http://www.w3.org/1999/xlink" xmlns="http://www.w3.org/2000/svg" version="1.1" width="10000" viewBox="0 0 10000 10000" height="10000">
  <g transform="translate(566, 277) scale(0.7904411764705882) ">
    <defs>
      <style>.cls-1{fill:none;stroke:#000;stroke-miterlimit:10;}</style>
    </defs>
    <title>Cat_1</title>
    <g id="eyebrow_left_surprise">
      <path class="cls-1" d="M160.34,165.93c0-6.69,6-12.1,13.45-12.1"/>
      <path class="cls-1" d="M185.15,165.93c0-6.69-5.08-12.1-11.36-12.1"/>
    </g>
  </g>
  <g transform="translate(566, 277) scale(0.7904411764705882) ">
    <defs>
      <style>.cls-1{fill:none;stroke:#000;stroke-miterlimit:10;}</style>
    </defs>
    <title>Cat_1</title>
    <g id="eyebrow_right_surprise">
      <path class="cls-1" d="M407.23,165.93c0-6.69-5.16-12.1-11.53-12.1"/>
      <path class="cls-1" d="M383.21,165.93a12.29,12.29,0,0,1,12.49-12.1"/>
    </g>
  </g>
  <g transform="translate(566, 277) scale(0.7904411764705882) ">
    <defs>
      <style>.cls-1{fill:none;stroke:#000;stroke-miterlimit:10;}</style>
    </defs>
    <title>Cat_1</title>
    <g id="cat_head_1">
      <polygon class="cls-1" points="109.89 145.77 109.89 368.88 456.65 368.88 456.65 145.77 237.57 145.77 109.89 145.77"/>
    </g>
  </g>
  <g transform="translate(566, 277) scale(0.7904411764705882) ">
    <defs>
      <style>.cls-1{fill:none;stroke:#000;stroke-miterlimit:10;}</style>
    </defs>
    <title>Cat_1</title>
    <g id="eye_left_1">
      <path class="cls-1" d="M152.89,222.38c0-20.06,26.45-36.29,59.14-36.29"/>
      <path class="cls-1" d="M260.42,222.38c0-20.06-21.64-36.29-48.39-36.29"/>
    </g>
  </g>
  <g transform="translate(566, 277) scale(0.7904411764705882) ">
    <defs>
      <style>.cls-1{fill:none;stroke:#000;stroke-miterlimit:10;}</style>
    </defs>
    <title>Cat_1</title>
    <g id="eye_right_1">
      <path class="cls-1" d="M323.59,222.38c0-20.06,29.75-36.29,66.53-36.29"/>
      <path class="cls-1" d="M417.67,222.38c0-20.06-12.32-36.29-27.55-36.29"/>
    </g>
  </g>
  <g transform="translate(566, 277) scale(0.7904411764705882) ">
    <defs>
      <style>.cls-1{fill:none;stroke:#000;stroke-miterlimit:10;}</style>
    </defs>
    <title>Cat_1</title>
    <g id="body_2">
      <polyline class="cls-1" points="190.12 368.88 217.02 506.76 256.4 456.81 323.59 456.81 352.47 506.76 383.21 368.88"/>
    </g>
  </g>
  <g transform="translate(566, 277) scale(0.7904411764705882) ">
    <defs>
      <style>.cls-1{fill:none;stroke:#000;stroke-miterlimit:10;}</style>
    </defs>
    <title>Cat_1</title>
    <g id="ear_left_2">
      <polyline class="cls-1" points="126.71 145.77 198.13 78.31 256.4 145.77"/>
    </g>
  </g>
  <g transform="translate(566, 277) scale(0.7904411764705882) ">
    <defs>
      <style>.cls-1{fill:none;stroke:#000;stroke-miterlimit:10;}</style>
    </defs>
    <title>Cat_1</title>
    <g id="ear_right_2">
      <path class="cls-1" d="M383.21,78.31l57.64,67.46Z"/>
      <line class="cls-1" x1="328.45" y1="145.77" x2="383.21" y2="78.31"/>
    </g>
  </g>
  <g transform="translate(566, 277) scale(0.7904411764705882) ">
    <defs>
      <style>.cls-1{fill:none;stroke:#000;stroke-miterlimit:10;}</style>
    </defs>
    <title>Cat_1</title>
    <g id="nose_2">
      <polygon class="cls-1" points="249.68 252.19 332.29 252.19 290.99 273.32 249.68 252.19"/>
    </g>
  </g>
  <g transform="translate(566, 277) scale(0.7904411764705882) ">
    <defs>
      <style>.cls-1{fill:none;stroke:#000;stroke-miterlimit:10;}</style>
    </defs>
    <title>Cat_1</title>
    <g id="mouth_surprise">
      <ellipse class="cls-1" cx="291.33" cy="320.87" rx="28.34" ry="42.75"/>
    </g>
  </g>
</svg>
