<?xml version='1.0' encoding='ASCII' standalone='yes'?>
<svg xmlns:xlink="http://www.w3.org/1999/xlink" xmlns="http://www.w3.org/2000/svg" version="1.1" width="10000" viewBox="0 0 10000 10000" height="10000">
  <g transform="translate(55, 175) scale(1.0) ">
    <defs>
      <style>.cls-1{fill:none;stroke:#000;stroke-miterlimit:10;}</style>
    </defs>
    <title>Cat_1</title>
    <g id="eyebrow_left_1">
      <path class="cls-1" d="M169,165.93c0-6.69,19.24-12.1,43-12.1"/>
    </g>
  </g>
  <g transform="translate(55, 175) scale(1.0) ">
    <defs>
      <style>.cls-1{fill:none;stroke:#000;stroke-miterlimit:10;}</style>
    </defs>
    <title>Cat_1</title>
    <g id="eyebrow_right_1">
      <path class="cls-1" d="M411,165.93c0-6.69-13.83-12.1-30.91-12.1"/>
    </g>
  </g>
  <g transform="translate(55, 175) scale(1.0) ">
    <defs>
      <style>.cls-1{fill:none;stroke:#000;stroke-miterlimit:10;}</style>
    </defs>
    <title>Cat_1</title>
    <g id="cat_head_1">
      <polygon class="cls-1" points="109.89 145.77 109.89 368.88 456.65 368.88 456.65 145.77 237.57 145.77 109.89 145.77"/>
    </g>
  </g>
  <g transform="translate(55, 175) scale(1.0) ">
    <defs>
      <style>.cls-1{fill:none;stroke:#000;stroke-miterlimit:10;}</style>
    </defs>
    <title>Cat_1</title>
    <g id="eye_left_2">
      <circle class="cls-1" cx="173.61" cy="210.53" r="29.82"/>
      <path class="cls-1" d="M152.18,231.26c0-17.64,9.66-31.91,21.61-31.91"/>
      <path class="cls-1" d="M198.13,227.49c0-15.55-10.89-28.14-24.34-28.14"/>
    </g>
  </g>
  <g transform="translate(55, 175) scale(1.0) ">
    <defs>
      <style>.cls-1{fill:none;stroke:#000;stroke-miterlimit:10;}</style>
    </defs>
    <title>Cat_1</title>
    <g id="eye_right_2">
      <circle class="cls-1" cx="395.17" cy="210.71" r="30.48"/>
      <path class="cls-1" d="M369.74,227.49c0-15.55,11.61-28.14,26-28.14"/>
      <path class="cls-1" d="M417.67,231.26c0-17.64-9.83-31.91-22-31.91"/>
    </g>
  </g>
  <g transform="translate(55, 175) scale(1.0) ">
    <defs>
      <style>.cls-1{fill:none;stroke:#000;stroke-miterlimit:10;}</style>
    </defs>
    <title>Cat_1</title>
    <g id="body">
      <polyline class="cls-1" points="190.53 368.88 190.53 487.15 252.35 487.15 252.35 462.96 356.85 462.96 356.85 492.53 417.67 492.53 417.67 368.88"/>
    </g>
  </g>
  <g transform="translate(55, 175) scale(1.0) ">
    <defs>
      <style>.cls-1{fill:none;stroke:#000;stroke-miterlimit:10;}</style>
    </defs>
    <title>Cat_1</title>
    <g id="ear_left_2">
      <polyline class="cls-1" points="126.71 145.77 198.13 78.31 256.4 145.77"/>
    </g>
  </g>
  <g transform="translate(55, 175) scale(1.0) ">
    <defs>
      <style>.cls-1{fill:none;stroke:#000;stroke-miterlimit:10;}</style>
    </defs>
    <title>Cat_1</title>
    <g id="ear_right_2">
      <path class="cls-1" d="M383.21,78.31l57.64,67.46Z"/>
      <line class="cls-1" x1="328.45" y1="145.77" x2="383.21" y2="78.31"/>
    </g>
  </g>
  <g transform="translate(55, 175) scale(1.0) ">
    <defs>
      <style>.cls-1{fill:none;stroke:#000;stroke-miterlimit:10;}</style>
    </defs>
    <title>Cat_1</title>
    <g id="nose_2">
      <polygon class="cls-1" points="249.68 252.19 332.29 252.19 290.99 273.32 249.68 252.19"/>
    </g>
  </g>
  <g transform="translate(55, 175) scale(1.0) ">
    <defs>
      <style>.cls-1{fill:none;stroke:#000;stroke-miterlimit:10;}</style>
    </defs>
    <title>Cat_1</title>
    <g id="mouth_1">
      <polyline class="cls-1" points="236.22 337.97 260.42 358.13 289.31 337.97 323.59 358.13 333 329.9"/>
    </g>
  </g>
</svg>
