<?xml version='1.0' encoding='ASCII' standalone='yes'?>
<svg xmlns:xlink="http://www.w3.org/1999/xlink" xmlns="http://www.w3.org/2000/svg" version="1.1" width="10000" viewBox="0 0 10000 10000" height="10000">
  <g transform="translate(566, 277) scale(0.7904411764705882) ">
    <defs>
      <style>.cls-1{fill:none;stroke:#000;stroke-miterlimit:10;}</style>
    </defs>
    <title>Cat_1</title>
    <g id="eyebrow_left_1">
      <path class="cls-1" d="M169,165.93c0-6.69,19.24-12.1,43-12.1"/>
    </g>
  </g>
  <g transform="translate(566, 277) scale(0.7904411764705882) ">
    <defs>
      <style>.cls-1{fill:none;stroke:#000;stroke-miterlimit:10;}</style>
    </defs>
    <title>Cat_1</title>
    <g id="eyebrow_right_1">
      <path class="cls-1" d="M411,165.93c0-6.69-13.83-12.1-30.91-12.1"/>
    </g>
  </g>
  <g transform="translate(566, 277) scale(0.7904411764705882) ">
    <defs>
      <style>.cls-1{fill:none;stroke:#000;stroke-miterlimit:10;}</style>
    </defs>
    <title>Cat_1</title>
    <g id="cat_head_1">
      <polygon class="cls-1" points="109.89 145.77 109.89 368.88 456.65 368.88 456.65 145.77 237.57 145.77 109.89 145.77"/>
    </g>
  </g>
  <g transform="translate(566, 277) scale(0.7904411764705882) ">
    <defs>
      <style>.cls-1{fill:none;stroke:#000;stroke-miterlimit:10;}</style>
    </defs>
    <title>Cat_1</title>
    <g id="eye_left_1">
      <path class="cls-1" d="M152.89,222.38c0-20.06,26.45-36.29,59.14-36.29"/>
      <path class="cls-1" d="M260.42,222.38c0-20.06-21.64-36.29-48.39-36.29"/>
    </g>
  </g>
  <g transform="translate(566, 277) scale(0.7904411764705882) ">
    <defs>
      <style>.cls-1{fill:none;stroke:#000;stroke-miterlimit:10;}</style>
    </defs>
    <title>Cat_1</title>
    <g id="eye_right_1">
      <path class="cls-1" d="M323.59,222.38c0-20.06,29.75-36.29,66.53-36.29"/>
      <path class="cls-1" d="M417.67,222.38c0-20.06-12.32-36.29-27.55-36.29"/>
    </g>
  </g>
  <g transform="translate(566, 277) scale(0.7904411764705882) ">
    <defs>
      <style>.cls-1{fill:none;stroke:#000;stroke-miterlimit:10;}</style>
    </defs>
    <title>Cat_1</title>
    <g id="body">
      <polyline class="cls-1" points="190.53 368.88 190.53 487.15 252.35 487.15 252.35 462.96 356.85 462.96 356.85 492.53 417.67 492.53 417.67 368.88"/>
    </g>
  </g>
  <g transform="translate(566, 277) scale(0.7904411764705882) ">
    <defs>
      <style>.cls-1{fill:none;stroke:#000;stroke-miterlimit:10;}</style>
    </defs>
    <title>Cat_1</title>
    <g id="ear_left_1">
      <polyline class="cls-1" points="109.89 145.77 182.46 26.15 260.42 145.77"/>
    </g>
  </g>
  <g transform="translate(566, 277) scale(0.7904411764705882) ">
    <defs>
      <style>.cls-1{fill:none;stroke:#000;stroke-miterlimit:10;}</style>
    </defs>
    <title>Cat_1</title>
    <g id="ear_right_1">
      <polyline class="cls-1" points="456.65 145.77 390.79 26.15 323.59 145.77"/>
    </g>
  </g>
  <g transform="translate(566, 277) scale(0.7904411764705882) ">
    <defs>
      <style>.cls-1{fill:none;stroke:#000;stroke-miterlimit:10;}</style>
    </defs>
    <title>Cat_1</title>
    <g id="nose_1">
      <polygon class="cls-1" points="268.48 265.39 310.15 265.39 289.31 309.74 268.48 265.39"/>
    </g>
  </g>
  <g transform="translate(566, 277) scale(0.7904411764705882) ">
    <defs>
      <style>.cls-1{fill:none;stroke:#000;stroke-miterlimit:10;}</style>
    </defs>
    <title>Cat_1</title>
    <g id="mouth_1">
      <polyline class="cls-1" points="236.22 337.97 260.42 358.13 289.31 337.97 323.59 358.13 333 329.9"/>
    </g>
  </g>
</svg>
